<?xml version="1.0" encoding="iso-8859-1"?>
<!-- Generator: Adobe Illustrator 19.0.0, SVG Export Plug-In . SVG Version: 6.00 Build 0)  -->
<svg version="1.1" id="Layer_1" xmlns="http://www.w3.org/2000/svg" xmlns:xlink="http://www.w3.org/1999/xlink" x="0px" y="0px"
	 viewBox="0 0 512 512" style="enable-background:new 0 0 512 512;" xml:space="preserve">
<g>
	<g>
		<path d="M327.276,167.155c-69.021,0-125.173,56.152-125.173,125.172S258.255,417.5,327.276,417.5s125.172-56.152,125.172-125.173
			S396.296,167.155,327.276,167.155z M327.276,396.602c-57.497,0-104.275-46.778-104.275-104.275
			c0-57.497,46.778-104.275,104.275-104.275c57.497,0,104.275,46.778,104.275,104.275
			C431.55,349.824,384.772,396.602,327.276,396.602z"/>
	</g>
</g>
<g>
	<g>
		<path d="M327.276,204.679c-48.329,0-87.648,39.318-87.648,87.648s39.318,87.648,87.648,87.648s87.648-39.318,87.648-87.648
			C414.924,243.998,375.604,204.679,327.276,204.679z M327.276,359.078c-36.807,0-66.75-29.944-66.75-66.75
			c0-36.807,29.944-66.75,66.75-66.75s66.75,29.944,66.75,66.75C394.026,329.134,364.081,359.078,327.276,359.078z"/>
	</g>
</g>
<g>
	<g>
		<path d="M359.636,250.582c-4.503-3.511-11.004-2.756-14.582,1.715c-3.605,4.507-2.873,11.082,1.632,14.687
			c0.065,0.051,0.161,0.128,0.227,0.177c1.892,1.441,4.116,2.138,6.324,2.138c3.149,0,6.263-1.418,8.318-4.117
			C365.038,260.611,364.174,254.09,359.636,250.582z"/>
	</g>
</g>
<g>
	<g>
		<path d="M369.645,281.878c-5.771,0-10.449,4.678-10.449,10.449c0,17.601-14.319,31.921-31.921,31.921
			c-17.601,0-31.921-14.319-31.921-31.921c0-5.771-4.678-10.449-10.449-10.449c-5.771,0-10.449,4.678-10.449,10.449
			c0,29.124,23.694,52.819,52.819,52.819c29.124,0,52.819-23.694,52.819-52.819C380.094,286.556,375.416,281.878,369.645,281.878z"
			/>
	</g>
</g>
<g>
	<g>
		<path d="M456.62,167.38c-5.762,0-10.449,4.687-10.449,10.449c0,5.762,4.687,10.449,10.449,10.449
			c5.762,0,10.449-4.687,10.449-10.449C467.069,172.067,462.382,167.38,456.62,167.38z"/>
	</g>
</g>
<g>
	<g>
		<path d="M470.204,125.95h-42.93l-13.124-63.77c-1-4.857-5.276-8.342-10.235-8.342H249.59c-5.014,0-9.322,3.562-10.263,8.488
			l-12.158,63.625h-82.972V99.828c0-5.771-4.678-10.449-10.449-10.449H55.38c-5.771,0-10.449,4.678-10.449,10.449v26.122h-3.135
			C18.75,125.95,0,144.657,0,167.65v248.812c0,22.993,18.75,41.7,41.796,41.7h428.408c23.046,0,41.796-18.57,41.796-41.397V167.651
			C512,144.657,493.25,125.95,470.204,125.95z M258.231,74.736h137.168l10.328,50.184H248.641L258.231,74.736z M65.829,110.277
			h57.469v15.674H65.829V110.277z M491.102,416.766c0,11.495-9.179,20.499-20.898,20.499H41.796
			c-11.171,0-20.297-8.777-20.845-19.765h174.631c5.771,0,10.449-4.678,10.449-10.449c0-5.771-4.678-10.449-10.449-10.449H20.898
			V188.053h174.683c5.771,0,10.449-4.678,10.449-10.449c0-5.771-4.678-10.449-10.449-10.449H20.923
			c0.268-11.24,9.518-20.307,20.873-20.307h428.408c11.523,0,20.898,9.332,20.898,20.802V416.766z"/>
	</g>
</g>
<g>
	<g>
		<path d="M229.522,396.602h-0.137c-5.771,0-10.449,4.678-10.449,10.449c0,5.771,4.678,10.449,10.449,10.449h0.137
			c5.771,0,10.449-4.678,10.449-10.449C239.971,401.28,235.293,396.602,229.522,396.602z"/>
	</g>
</g>
<g>
	<g>
		<path d="M229.522,167.155h-0.137c-5.771,0-10.449,4.678-10.449,10.449c0,5.771,4.678,10.449,10.449,10.449h0.137
			c5.771,0,10.449-4.678,10.449-10.449C239.971,171.833,235.293,167.155,229.522,167.155z"/>
	</g>
</g>
<g>
</g>
<g>
</g>
<g>
</g>
<g>
</g>
<g>
</g>
<g>
</g>
<g>
</g>
<g>
</g>
<g>
</g>
<g>
</g>
<g>
</g>
<g>
</g>
<g>
</g>
<g>
</g>
<g>
</g>
</svg>
